<svg xmlns="http://www.w3.org/2000/svg" width="83.177" height="32" viewBox="0 0 83.177 32"><defs><style>.a{fill:#7263a8;}.b{fill:none;}.c{fill:#4e358a;}.d{fill:#2f3e24;}.e{fill:#fffced;}</style></defs><g transform="translate(-1015.173 -108.474)"><g transform="translate(1015.173 108.474)"><g transform="translate(0 4.272)"><g transform="translate(13.784)"><path class="a" d="M1060.271,146.932v-7.578h-3.7v7.578H1049.8V125.351a6.147,6.147,0,1,1,12.293,0v21.581Zm0-9.4V125.351a4.336,4.336,0,0,0-3.7-4.283v16.468Z" transform="translate(-1049.796 -119.204)"/><path class="b" d="M1065.235,122.187v17.775h4.96V127.146A4.965,4.965,0,0,0,1065.235,122.187Z" transform="translate(-1059.088 -120.999)"/><path class="c" d="M1061.066,120.789a5.48,5.48,0,0,0-2.758.742v25.724h2.758v-7.578h4.96v7.578h.556V126.3A5.522,5.522,0,0,0,1061.066,120.789Zm4.96,18.332h-4.96V121.346a4.965,4.965,0,0,1,4.96,4.959Z" transform="translate(-1054.919 -120.158)"/></g><path class="a" d="M1015.173,146.932V119.2h6.777v25.91h5.516v1.818Z" transform="translate(-1015.173 -119.205)"/><path class="a" d="M1093.3,146.932a6.154,6.154,0,0,1-6.146-6.147V125.351a6.146,6.146,0,1,1,12.293,0v.631h-1.818v-.631a4.336,4.336,0,0,0-3.7-4.283v24a4.335,4.335,0,0,0,3.7-4.283v-.631h1.818v.631A6.154,6.154,0,0,1,1093.3,146.932Z" transform="translate(-1058.498 -119.204)"/><path class="a" d="M1160.1,146.932V125.351a6.147,6.147,0,1,1,6.777,6.114v15.467Zm6.777-17.3a4.329,4.329,0,0,0,0-8.566Z" transform="translate(-1102.404 -119.204)"/><path class="a" d="M1204.3,146.932v-7.578H1201v7.578h-6.777V119.2H1201v18.332h3.3V119.2h1.818v27.728Z" transform="translate(-1122.941 -119.204)"/><path class="c" d="M1210.054,120.789v18.332h-4.56V120.789h-2.758v26.466h2.758v-7.578h4.56v7.578h.556V120.789Z" transform="translate(-1128.064 -120.158)"/><path class="b" d="M1175.542,122.187v9.919a4.959,4.959,0,0,0,0-9.919Z" transform="translate(-1111.696 -120.999)"/><path class="c" d="M1171.373,147.255V131.82a5.516,5.516,0,1,0-2.758-10.289v25.724Zm0-15.991v-9.919a4.959,4.959,0,0,1,0,9.919Z" transform="translate(-1107.527 -120.158)"/><g transform="translate(42.687)"><path class="a" d="M1132.869,146.932v-7.578h-3.7v7.578h-6.777V125.351a6.147,6.147,0,1,1,12.293,0v21.581Zm0-9.4V125.351a4.336,4.336,0,0,0-3.7-4.283v16.468Z" transform="translate(-1122.394 -119.204)"/><path class="b" d="M1137.833,122.187v17.775h4.96V127.146A4.965,4.965,0,0,0,1137.833,122.187Z" transform="translate(-1131.686 -120.999)"/><path class="c" d="M1133.664,120.789a5.48,5.48,0,0,0-2.758.742v25.724h2.758v-7.578h4.96v7.578h.556V126.3A5.522,5.522,0,0,0,1133.664,120.789Zm4.96,18.332h-4.96V121.346a4.965,4.965,0,0,1,4.96,4.959Z" transform="translate(-1127.517 -120.158)"/></g><path class="c" d="M1098.425,146.7V121.346a4.965,4.965,0,0,1,4.96,4.959h.556a5.512,5.512,0,0,0-8.274-4.774v24.982a5.512,5.512,0,0,0,8.274-4.773h-.556A4.966,4.966,0,0,1,1098.425,146.7Z" transform="translate(-1063.621 -120.158)"/><path class="c" d="M1031.958,147.255V146.7h-5.516v-25.91h-2.758v26.466Z" transform="translate(-1020.296 -120.158)"/><g transform="translate(72.882 3.967)"><g transform="translate(0 8.036)"><path class="d" d="M1198.24,150.908l.008-.023s.126-.377.219-.619a1.334,1.334,0,0,1,.975-.889,1.044,1.044,0,0,1,.213-.025.222.222,0,0,1,.119.021.569.569,0,0,1,0,.333,1.334,1.334,0,0,1-.889.975c-.242.092-.615.218-.619.219Z" transform="translate(-1198.24 -149.353)"/><path class="d" d="M1203.35,149.707a.579.579,0,0,1,0-.334h0a.224.224,0,0,1,.12-.021,1.038,1.038,0,0,1,.213.025,1.334,1.334,0,0,1,.975.889c.092.242.218.615.219.619l.008.023-.024-.008s-.376-.127-.619-.219A1.333,1.333,0,0,1,1203.35,149.707Z" transform="translate(-1201.301 -149.353)"/></g><path class="d" d="M1202.081,131.33c-.032,0-.135-.09-.23-.236a1.33,1.33,0,0,1-.061-1.315c.106-.236.281-.589.283-.593l.008-.016.008.016s.177.356.283.593a1.33,1.33,0,0,1-.061,1.315C1202.216,131.24,1202.113,131.33,1202.081,131.33Z" transform="translate(-1200.291 -129.169)"/><path class="d" d="M1204.881,133.792l-.008.023s-.127.377-.219.619a1.334,1.334,0,0,1-.975.889,1.043,1.043,0,0,1-.213.025.216.216,0,0,1-.119-.021.567.567,0,0,1,0-.332,1.334,1.334,0,0,1,.889-.976c.242-.092.615-.217.619-.219Z" transform="translate(-1201.301 -131.952)"/><path class="d" d="M1199.771,134.994a.577.577,0,0,1,0,.333h0a.216.216,0,0,1-.119.021,1.044,1.044,0,0,1-.213-.025,1.335,1.335,0,0,1-.975-.889c-.092-.242-.218-.615-.219-.619l-.008-.023.023.008s.376.127.619.219A1.334,1.334,0,0,1,1199.771,134.994Z" transform="translate(-1198.24 -131.952)"/><path class="e" d="M1200.117,142.4a.123.123,0,0,0,.023-.243l-.016,0v-.61a4.236,4.236,0,0,0,.472.815l.038.053a.344.344,0,0,0,.036.042.389.389,0,0,0,.1.072c.046.022.42.131.436.135l.02-.014c0-.018.013-.426,0-.488a.364.364,0,0,0-.049-.118h0l0-.005-.007-.011-.061-.082h0a4.7,4.7,0,0,0-.558-.631l.506.17a.115.115,0,0,0,.01.076.12.12,0,0,0,.107.066.118.118,0,0,0,.054-.013.12.12,0,1,0-.167-.147l-.522-.176a4.714,4.714,0,0,0,.882-.2h0l.016-.005a.352.352,0,0,0,.09-.045.464.464,0,0,0,.088-.082h0c.023-.028.227-.328.235-.341l-.008-.023c-.014-.006-.357-.129-.393-.138a.435.435,0,0,0-.121-.014h0a.346.346,0,0,0-.1.016l-.019.006a4.667,4.667,0,0,0-.841.358l.334-.457a.117.117,0,0,0,.061.018l.019,0h0a.12.12,0,0,0-.037-.236.118.118,0,0,0-.078.048.12.12,0,0,0-.021.089.119.119,0,0,0,.042.073l-.325.444a4.733,4.733,0,0,0,.082-.889h0c0-.02,0-.037,0-.053a.355.355,0,0,0-.007-.066.393.393,0,0,0-.043-.115.907.907,0,0,0-.075-.111l-.189-.243h0l-.012-.006h-.01l-.012.006h0l-.189.243a.893.893,0,0,0-.075.111.393.393,0,0,0-.043.115.345.345,0,0,0-.007.066c0,.016,0,.034,0,.053h0a4.7,4.7,0,0,0,.082.889l-.325-.444a.118.118,0,0,0,.021-.162.118.118,0,0,0-.078-.048.12.12,0,0,0-.037.236h0l.019,0a.118.118,0,0,0,.061-.018l.334.457a4.674,4.674,0,0,0-.841-.358l-.019-.006a.348.348,0,0,0-.1-.016h0a.432.432,0,0,0-.12.014c-.036.009-.379.133-.393.138l-.007.023c.009.013.212.313.235.341h0a.453.453,0,0,0,.088.082.343.343,0,0,0,.09.045l.016.005h0a4.718,4.718,0,0,0,.882.2l-.522.176a.12.12,0,1,0-.167.147.117.117,0,0,0,.054.013.12.12,0,0,0,.037-.006.122.122,0,0,0,.07-.06.12.12,0,0,0,.01-.076l.506-.17a4.66,4.66,0,0,0-.559.631h0l-.061.082-.007.011,0,.005h0a.361.361,0,0,0-.049.118c-.014.062,0,.471,0,.488l.02.014c.016,0,.389-.113.435-.135a.376.376,0,0,0,.1-.072.328.328,0,0,0,.037-.042l.038-.053a4.267,4.267,0,0,0,.472-.815v.61l-.016,0a.122.122,0,0,0,.023.243Z" transform="translate(-1198.327 -135.274)"/><g transform="translate(0 10.202)"><path class="d" d="M1204.881,154.794l-.008.023s-.127.377-.219.619a1.335,1.335,0,0,1-.975.889,1.068,1.068,0,0,1-.213.024.216.216,0,0,1-.119-.021.567.567,0,0,1,0-.332,1.334,1.334,0,0,1,.889-.976c.242-.092.615-.217.619-.219Z" transform="translate(-1201.301 -154.794)"/><path class="d" d="M1199.771,156a.577.577,0,0,1,0,.333h0a.217.217,0,0,1-.119.021,1.069,1.069,0,0,1-.213-.024,1.336,1.336,0,0,1-.975-.889c-.092-.242-.218-.615-.219-.619l-.008-.023.023.008s.376.127.619.219A1.335,1.335,0,0,1,1199.771,156Z" transform="translate(-1198.24 -154.794)"/></g><g transform="translate(0 16.397)"><path class="d" d="M1202.081,173.458c.032,0,.135.09.23.236a1.331,1.331,0,0,1,.061,1.316c-.106.236-.281.589-.283.592l-.008.016-.008-.016s-.177-.356-.283-.592a1.33,1.33,0,0,1,.061-1.316C1201.946,173.548,1202.049,173.458,1202.081,173.458Z" transform="translate(-1200.291 -172.223)"/><path class="d" d="M1198.24,171.91l.008-.023s.126-.377.219-.619a1.334,1.334,0,0,1,.975-.889,1.044,1.044,0,0,1,.213-.025.216.216,0,0,1,.119.021.567.567,0,0,1,0,.332,1.335,1.335,0,0,1-.889.976c-.242.092-.615.217-.619.219Z" transform="translate(-1198.24 -170.355)"/><path class="d" d="M1203.35,170.709a.577.577,0,0,1,0-.333h0a.218.218,0,0,1,.12-.021,1.038,1.038,0,0,1,.213.025,1.334,1.334,0,0,1,.975.889c.092.242.218.615.219.619l.008.023-.024-.007s-.376-.127-.619-.219A1.334,1.334,0,0,1,1203.35,170.709Z" transform="translate(-1201.301 -170.355)"/></g><path class="e" d="M1200.117,160.578a.122.122,0,0,0-.023.243l.016,0v.61a4.265,4.265,0,0,0-.472-.815l-.038-.053a.358.358,0,0,0-.037-.042.375.375,0,0,0-.1-.071c-.046-.023-.419-.131-.435-.136l-.02.015c0,.018-.013.426,0,.488a.358.358,0,0,0,.049.118h0l0,.006.007.011.061.082h0a4.637,4.637,0,0,0,.559.631l-.506-.17a.119.119,0,0,0-.117-.142.12.12,0,0,0-.114.083.12.12,0,0,0,.226.076l.522.176a4.688,4.688,0,0,0-.882.2h0l-.016.005a.341.341,0,0,0-.09.045.444.444,0,0,0-.088.083h0c-.023.027-.226.328-.235.34l.007.024c.015.005.358.129.393.138a.431.431,0,0,0,.12.014h0a.334.334,0,0,0,.1-.016l.019-.006a4.675,4.675,0,0,0,.841-.357l-.334.457a.114.114,0,0,0-.061-.018l-.019,0h0a.12.12,0,0,0-.052.215.123.123,0,0,0,.089.022.12.12,0,0,0,.1-.137.118.118,0,0,0-.043-.073l.325-.445a4.708,4.708,0,0,0-.082.889h0c0,.019,0,.037,0,.053a.353.353,0,0,0,.007.067.4.4,0,0,0,.043.115.89.89,0,0,0,.075.111l.189.243h0l.012.006h.01l.012-.006h0l.189-.243a.9.9,0,0,0,.075-.111.4.4,0,0,0,.043-.115.363.363,0,0,0,.007-.067c0-.016,0-.034,0-.053h0a4.738,4.738,0,0,0-.082-.889l.325.445a.117.117,0,0,0-.042.073.12.12,0,0,0,.1.137.123.123,0,0,0,.089-.022.12.12,0,0,0,.026-.167.118.118,0,0,0-.078-.048h0l-.019,0a.113.113,0,0,0-.061.018l-.334-.457a4.668,4.668,0,0,0,.841.357l.019.006a.332.332,0,0,0,.1.016h0a.434.434,0,0,0,.121-.014c.036-.009.379-.133.393-.138l.008-.024c-.009-.013-.212-.313-.235-.34h0a.454.454,0,0,0-.088-.083.351.351,0,0,0-.09-.045l-.016-.005h0a4.684,4.684,0,0,0-.882-.2l.522-.176a.12.12,0,0,0,.227-.076.12.12,0,0,0-.114-.083.12.12,0,0,0-.037.006.119.119,0,0,0-.07.059.115.115,0,0,0-.01.076l-.506.17a4.678,4.678,0,0,0,.558-.631h0l.061-.082.007-.011,0-.006h0a.361.361,0,0,0,.049-.118c.014-.062,0-.47,0-.488l-.02-.015c-.016,0-.389.113-.436.136a.387.387,0,0,0-.1.071.377.377,0,0,0-.036.042l-.038.053a4.234,4.234,0,0,0-.472.815v-.61l.016,0a.123.123,0,0,0-.023-.243Z" transform="translate(-1198.327 -147.915)"/></g><g transform="translate(59.298 3.967)"><g transform="translate(0 8.036)"><path class="d" d="M1164.119,150.908l.007-.023s.127-.377.219-.619a1.334,1.334,0,0,1,.975-.889,1.043,1.043,0,0,1,.213-.025.22.22,0,0,1,.119.021.573.573,0,0,1,0,.333,1.334,1.334,0,0,1-.889.975c-.242.092-.615.218-.619.219Z" transform="translate(-1164.119 -149.353)"/><path class="d" d="M1169.228,149.707a.579.579,0,0,1,0-.334h0a.22.22,0,0,1,.119-.021,1.043,1.043,0,0,1,.213.025,1.335,1.335,0,0,1,.975.889c.092.242.218.615.219.619l.008.023-.023-.008s-.377-.127-.619-.219A1.334,1.334,0,0,1,1169.228,149.707Z" transform="translate(-1167.179 -149.353)"/></g><path class="d" d="M1167.959,131.33c-.032,0-.135-.09-.23-.236a1.331,1.331,0,0,1-.061-1.315c.106-.236.281-.589.283-.593l.008-.016.008.016s.177.356.283.593a1.33,1.33,0,0,1-.061,1.315C1168.095,131.24,1167.992,131.33,1167.959,131.33Z" transform="translate(-1166.17 -129.169)"/><path class="d" d="M1170.759,133.792l-.008.023s-.127.377-.219.619a1.334,1.334,0,0,1-.975.889,1.041,1.041,0,0,1-.213.025.219.219,0,0,1-.12-.021.569.569,0,0,1,0-.332,1.334,1.334,0,0,1,.889-.976c.242-.092.615-.217.619-.219Z" transform="translate(-1167.179 -131.952)"/><path class="d" d="M1165.65,134.994a.581.581,0,0,1,0,.333h0a.22.22,0,0,1-.12.021,1.041,1.041,0,0,1-.213-.025,1.334,1.334,0,0,1-.975-.889c-.092-.242-.218-.615-.219-.619l-.007-.023.023.008s.377.127.619.219A1.334,1.334,0,0,1,1165.65,134.994Z" transform="translate(-1164.119 -131.952)"/><path class="e" d="M1165.995,142.4a.123.123,0,0,0,.023-.243l-.016,0v-.61a4.243,4.243,0,0,0,.472.815l.038.053a.349.349,0,0,0,.037.042.379.379,0,0,0,.1.072c.046.022.42.131.435.135l.02-.014c0-.018.013-.426,0-.488a.374.374,0,0,0-.049-.118h0l0-.005-.007-.011-.061-.082h0a4.66,4.66,0,0,0-.559-.631l.506.17a.12.12,0,0,0,.117.142.12.12,0,1,0-.112-.16l-.522-.176a4.72,4.72,0,0,0,.882-.2h0l.016-.005a.339.339,0,0,0,.09-.045.446.446,0,0,0,.088-.082h0c.023-.028.227-.328.235-.341l-.008-.023c-.015-.006-.357-.129-.393-.138a.432.432,0,0,0-.12-.014h0a.349.349,0,0,0-.1.016l-.019.006a4.674,4.674,0,0,0-.841.358l.334-.457a.119.119,0,0,0,.061.018l.019,0h0a.12.12,0,0,0-.037-.236.118.118,0,0,0-.078.048.118.118,0,0,0,.021.162l-.325.444a4.7,4.7,0,0,0,.082-.889h0c0-.02,0-.037,0-.053a.337.337,0,0,0-.007-.066.389.389,0,0,0-.043-.115.869.869,0,0,0-.075-.111l-.189-.243h0l-.012-.006h-.01l-.012.006h0l-.189.243a.952.952,0,0,0-.075.111.391.391,0,0,0-.043.115.321.321,0,0,0-.007.066c0,.016,0,.034,0,.053h0a4.766,4.766,0,0,0,.082.889l-.325-.444a.118.118,0,0,0,.021-.162.118.118,0,0,0-.078-.048.12.12,0,0,0-.037.236h0l.019,0a.117.117,0,0,0,.061-.018l.334.457a4.667,4.667,0,0,0-.841-.358l-.019-.006a.346.346,0,0,0-.1-.016h0a.435.435,0,0,0-.121.014c-.036.009-.379.133-.393.138l-.008.023c.009.013.212.313.235.341h0a.453.453,0,0,0,.088.082.351.351,0,0,0,.09.045l.016.005h0a4.72,4.72,0,0,0,.882.2l-.522.176a.119.119,0,0,0-.226.077.12.12,0,0,0,.113.083.124.124,0,0,0,.037-.006.119.119,0,0,0,.069-.06.116.116,0,0,0,.01-.076l.506-.17a4.686,4.686,0,0,0-.559.631h0l-.061.082-.007.011,0,.005h0a.362.362,0,0,0-.049.118c-.013.062,0,.471,0,.488l.02.014c.016,0,.389-.113.436-.135a.387.387,0,0,0,.1-.072.332.332,0,0,0,.036-.042l.038-.053a4.273,4.273,0,0,0,.473-.815v.61l-.016,0a.123.123,0,0,0,.023.243Z" transform="translate(-1164.205 -135.274)"/><g transform="translate(0 10.202)"><path class="d" d="M1170.759,154.794l-.008.023s-.127.377-.219.619a1.335,1.335,0,0,1-.975.889,1.066,1.066,0,0,1-.213.024.219.219,0,0,1-.12-.021.569.569,0,0,1,0-.332,1.334,1.334,0,0,1,.889-.976c.242-.092.615-.217.619-.219Z" transform="translate(-1167.179 -154.794)"/><path class="d" d="M1165.65,156a.581.581,0,0,1,0,.333h0a.22.22,0,0,1-.12.021,1.065,1.065,0,0,1-.213-.024,1.335,1.335,0,0,1-.975-.889c-.092-.242-.218-.615-.219-.619l-.007-.023.023.008s.377.127.619.219A1.335,1.335,0,0,1,1165.65,156Z" transform="translate(-1164.119 -154.794)"/></g><g transform="translate(0 16.397)"><path class="d" d="M1167.959,173.458c.032,0,.135.09.23.236a1.331,1.331,0,0,1,.061,1.316c-.106.236-.281.589-.283.592l-.008.016-.008-.016s-.176-.356-.283-.592a1.332,1.332,0,0,1,.061-1.316C1167.824,173.548,1167.927,173.458,1167.959,173.458Z" transform="translate(-1166.17 -172.223)"/><path class="d" d="M1164.119,171.91l.007-.023s.127-.377.219-.619a1.334,1.334,0,0,1,.975-.889,1.043,1.043,0,0,1,.213-.025.215.215,0,0,1,.119.021.571.571,0,0,1,0,.332,1.335,1.335,0,0,1-.889.976c-.242.092-.615.217-.619.219Z" transform="translate(-1164.119 -170.355)"/><path class="d" d="M1169.228,170.709a.577.577,0,0,1,0-.333h0a.215.215,0,0,1,.119-.021,1.043,1.043,0,0,1,.213.025,1.335,1.335,0,0,1,.975.889c.092.242.218.615.219.619l.008.023-.023-.007s-.377-.127-.619-.219A1.334,1.334,0,0,1,1169.228,170.709Z" transform="translate(-1167.179 -170.355)"/></g><path class="e" d="M1165.995,160.578a.123.123,0,0,0-.023.243l.016,0v.61a4.271,4.271,0,0,0-.473-.815l-.038-.053a.362.362,0,0,0-.036-.042.385.385,0,0,0-.1-.071c-.046-.023-.42-.131-.436-.136l-.02.015c0,.018-.013.426,0,.488a.358.358,0,0,0,.049.118h0l0,.006.007.011.061.082h0a4.662,4.662,0,0,0,.559.631l-.506-.17a.116.116,0,0,0-.01-.076.119.119,0,0,0-.069-.059.124.124,0,0,0-.037-.006.118.118,0,0,0-.054.013.116.116,0,0,0-.059.07.119.119,0,0,0,.226.076l.522.176a4.69,4.69,0,0,0-.882.2h0l-.016.005a.35.35,0,0,0-.09.045.444.444,0,0,0-.088.083h0c-.023.027-.227.328-.235.34l.008.024c.014.005.357.129.393.138a.433.433,0,0,0,.121.014h0a.337.337,0,0,0,.1-.016l.019-.006a4.668,4.668,0,0,0,.841-.357l-.334.457a.113.113,0,0,0-.061-.018l-.019,0h0a.118.118,0,0,0-.078.048.12.12,0,0,0,.026.167.123.123,0,0,0,.089.022.12.12,0,0,0,.078-.048.122.122,0,0,0,.022-.089.118.118,0,0,0-.043-.073l.325-.445a4.77,4.77,0,0,0-.082.889h0c0,.019,0,.037,0,.053a.328.328,0,0,0,.007.067.4.4,0,0,0,.043.115.948.948,0,0,0,.075.111l.189.243h0l.012.006h.01l.012-.006h0l.189-.243a.866.866,0,0,0,.075-.111.4.4,0,0,0,.043-.115.344.344,0,0,0,.007-.067c0-.016,0-.034,0-.053h0a4.708,4.708,0,0,0-.082-.889l.325.445a.119.119,0,0,0-.043.073.12.12,0,0,0,.189.115.12.12,0,0,0-.051-.215h0l-.019,0a.115.115,0,0,0-.061.018l-.334-.457a4.675,4.675,0,0,0,.841.357l.019.006a.335.335,0,0,0,.1.016h0a.431.431,0,0,0,.12-.014c.036-.009.379-.133.393-.138l.008-.024c-.009-.013-.212-.313-.235-.34h0a.438.438,0,0,0-.088-.083.338.338,0,0,0-.09-.045l-.016-.005h0a4.69,4.69,0,0,0-.882-.2l.522-.176a.119.119,0,0,0,.226-.076.12.12,0,0,0-.114-.083.119.119,0,0,0-.117.142l-.506.17a4.637,4.637,0,0,0,.559-.631h0l.061-.082.007-.011,0-.006h0a.371.371,0,0,0,.049-.118c.013-.062,0-.47,0-.488l-.02-.015c-.016,0-.389.113-.435.136a.377.377,0,0,0-.138.113l-.038.053a4.242,4.242,0,0,0-.472.815v-.61l.016,0a.123.123,0,0,0-.023-.243Z" transform="translate(-1164.205 -147.915)"/></g><g transform="translate(44.285 3.967)"><g transform="translate(0 8.036)"><path class="d" d="M1126.41,150.908l.008-.023s.127-.377.219-.619a1.334,1.334,0,0,1,.975-.889,1.047,1.047,0,0,1,.213-.025.224.224,0,0,1,.12.021.57.57,0,0,1,0,.333,1.335,1.335,0,0,1-.889.975c-.243.092-.615.218-.619.219Z" transform="translate(-1126.41 -149.353)"/><path class="d" d="M1131.519,149.707a.577.577,0,0,1,0-.334h0a.224.224,0,0,1,.12-.021,1.04,1.04,0,0,1,.213.025,1.334,1.334,0,0,1,.975.889c.092.242.217.615.219.619l.008.023-.023-.008s-.377-.127-.619-.219A1.335,1.335,0,0,1,1131.519,149.707Z" transform="translate(-1129.47 -149.353)"/></g><path class="d" d="M1130.25,131.33c-.032,0-.135-.09-.23-.236a1.331,1.331,0,0,1-.061-1.315c.107-.236.281-.589.283-.593l.008-.016.008.016s.176.356.283.593a1.331,1.331,0,0,1-.061,1.315C1130.386,131.24,1130.283,131.33,1130.25,131.33Z" transform="translate(-1128.461 -129.169)"/><path class="d" d="M1133.051,133.792l-.008.023s-.127.377-.219.619a1.334,1.334,0,0,1-.975.889,1.044,1.044,0,0,1-.214.025.219.219,0,0,1-.12-.021.577.577,0,0,1,0-.332,1.335,1.335,0,0,1,.889-.976c.242-.092.615-.217.619-.219Z" transform="translate(-1129.471 -131.952)"/><path class="d" d="M1127.941,134.994a.575.575,0,0,1,0,.333h0a.217.217,0,0,1-.12.021,1.044,1.044,0,0,1-.213-.025,1.335,1.335,0,0,1-.975-.889c-.092-.242-.217-.615-.219-.619l-.008-.023.023.008s.377.127.619.219A1.334,1.334,0,0,1,1127.941,134.994Z" transform="translate(-1126.41 -131.952)"/><path class="e" d="M1128.287,142.4a.123.123,0,0,0,.023-.243l-.016,0v-.61a4.266,4.266,0,0,0,.473.815l.038.053a.3.3,0,0,0,.036.042.383.383,0,0,0,.1.072c.046.022.419.131.436.135l.02-.014c0-.018.013-.426,0-.488a.362.362,0,0,0-.049-.118h0l0-.005-.007-.011-.061-.082h0a4.677,4.677,0,0,0-.559-.631l.506.17a.116.116,0,0,0,.01.076.119.119,0,0,0,.069.06.123.123,0,0,0,.037.006.12.12,0,0,0,.037-.234.121.121,0,0,0-.15.074l-.522-.176a4.716,4.716,0,0,0,.882-.2h0l.016-.005a.352.352,0,0,0,.091-.045.459.459,0,0,0,.088-.082h0c.023-.028.227-.328.235-.341l-.008-.023c-.014-.006-.357-.129-.393-.138a.435.435,0,0,0-.121-.014h0a.351.351,0,0,0-.1.016l-.019.006a4.682,4.682,0,0,0-.841.358l.334-.457a.117.117,0,0,0,.061.018l.019,0h0a.12.12,0,0,0-.037-.236.117.117,0,0,0-.078.048.118.118,0,0,0,.021.162l-.325.444a4.766,4.766,0,0,0,.082-.889h0c0-.02,0-.037,0-.053a.321.321,0,0,0-.008-.066.391.391,0,0,0-.043-.115.952.952,0,0,0-.075-.111l-.189-.243h0l-.012-.006h-.01l-.012.006h0l-.189.243a.9.9,0,0,0-.076.111.391.391,0,0,0-.043.115.337.337,0,0,0-.007.066v.053h0a4.75,4.75,0,0,0,.083.889l-.325-.444a.118.118,0,0,0,.021-.162.12.12,0,1,0-.116.189h0l.019,0a.119.119,0,0,0,.061-.018l.334.457a4.666,4.666,0,0,0-.841-.358l-.019-.006a.35.35,0,0,0-.1-.016h0a.436.436,0,0,0-.121.014c-.036.009-.378.133-.393.138l-.008.023c.009.013.212.313.235.341h0a.446.446,0,0,0,.088.082.344.344,0,0,0,.09.045l.016.005h0a4.72,4.72,0,0,0,.882.2l-.522.176a.119.119,0,1,0-.112.16.121.121,0,0,0,.107-.066.123.123,0,0,0,.01-.076l.506-.17a4.66,4.66,0,0,0-.559.631h0l-.061.082-.007.011,0,.005h0a.372.372,0,0,0-.049.118c-.013.062,0,.471,0,.488l.02.014c.015,0,.389-.113.435-.135a.383.383,0,0,0,.1-.072.36.36,0,0,0,.037-.042l.038-.053a4.263,4.263,0,0,0,.472-.815v.61l-.016,0a.123.123,0,0,0,.023.243Z" transform="translate(-1126.497 -135.274)"/><g transform="translate(0 10.202)"><path class="d" d="M1133.051,154.794l-.008.023s-.127.377-.219.619a1.335,1.335,0,0,1-.975.889,1.069,1.069,0,0,1-.214.024.219.219,0,0,1-.12-.021.577.577,0,0,1,0-.332,1.335,1.335,0,0,1,.889-.976c.242-.092.615-.217.619-.219Z" transform="translate(-1129.471 -154.794)"/><path class="d" d="M1127.941,156a.575.575,0,0,1,0,.333h0a.217.217,0,0,1-.12.021,1.069,1.069,0,0,1-.213-.024,1.336,1.336,0,0,1-.975-.889c-.092-.242-.217-.615-.219-.619l-.008-.023.023.008s.377.127.619.219A1.334,1.334,0,0,1,1127.941,156Z" transform="translate(-1126.41 -154.794)"/></g><g transform="translate(0 16.397)"><path class="d" d="M1130.25,173.458c.032,0,.135.09.23.236a1.331,1.331,0,0,1,.061,1.316c-.106.236-.281.589-.283.592l-.008.016-.008-.016s-.177-.356-.283-.592a1.331,1.331,0,0,1,.061-1.316C1130.115,173.548,1130.218,173.458,1130.25,173.458Z" transform="translate(-1128.461 -172.223)"/><path class="d" d="M1126.41,171.91l.008-.023s.127-.377.219-.619a1.334,1.334,0,0,1,.975-.889,1.047,1.047,0,0,1,.213-.025.218.218,0,0,1,.12.021.568.568,0,0,1,0,.332,1.335,1.335,0,0,1-.889.976c-.243.092-.615.217-.619.219Z" transform="translate(-1126.41 -170.355)"/><path class="d" d="M1131.519,170.709a.575.575,0,0,1,0-.333h0a.218.218,0,0,1,.12-.021,1.04,1.04,0,0,1,.213.025,1.334,1.334,0,0,1,.975.889c.092.242.217.615.219.619l.008.023-.023-.007s-.377-.127-.619-.219A1.336,1.336,0,0,1,1131.519,170.709Z" transform="translate(-1129.47 -170.355)"/></g><path class="e" d="M1128.287,160.578a.123.123,0,0,0-.023.243l.016,0v.61a4.262,4.262,0,0,0-.472-.815l-.038-.053a.4.4,0,0,0-.037-.042.381.381,0,0,0-.1-.071c-.046-.023-.42-.131-.435-.136l-.02.015c0,.018-.013.426,0,.488a.368.368,0,0,0,.049.118h0l0,.006.007.011.061.082h0a4.637,4.637,0,0,0,.559.631l-.506-.17a.123.123,0,0,0-.01-.076.121.121,0,0,0-.107-.065.12.12,0,1,0,.112.159l.522.176a4.69,4.69,0,0,0-.882.2h0l-.016.005a.342.342,0,0,0-.09.045.438.438,0,0,0-.088.083h0c-.023.027-.227.328-.235.34l.008.024c.015.005.357.129.393.138a.434.434,0,0,0,.121.014h0a.336.336,0,0,0,.1-.016l.019-.006a4.667,4.667,0,0,0,.841-.357l-.334.457a.115.115,0,0,0-.061-.018l-.019,0h0a.118.118,0,0,0-.078.048.12.12,0,0,0,.027.167.12.12,0,0,0,.189-.115.118.118,0,0,0-.043-.073l.325-.445a4.755,4.755,0,0,0-.083.889h0v.053a.345.345,0,0,0,.007.067.4.4,0,0,0,.043.115.893.893,0,0,0,.076.111l.189.243h0l.012.006h.01l.012-.006h0l.189-.243a.948.948,0,0,0,.075-.111.4.4,0,0,0,.043-.115.328.328,0,0,0,.008-.067c0-.016,0-.034,0-.053h0a4.77,4.77,0,0,0-.082-.889l.325.445a.118.118,0,0,0-.043.073.121.121,0,0,0,.022.089.12.12,0,0,0,.078.048.123.123,0,0,0,.089-.022.12.12,0,0,0,.026-.167.118.118,0,0,0-.078-.048h0l-.019,0a.113.113,0,0,0-.061.018l-.334-.457a4.683,4.683,0,0,0,.841.357l.019.006a.337.337,0,0,0,.1.016h0a.433.433,0,0,0,.121-.014c.036-.009.379-.133.393-.138l.008-.024c-.009-.013-.212-.313-.235-.34h0a.45.45,0,0,0-.088-.083.35.35,0,0,0-.091-.045l-.016-.005h0a4.686,4.686,0,0,0-.882-.2l.522-.176a.119.119,0,0,0,.226-.076.117.117,0,0,0-.059-.07.119.119,0,0,0-.054-.013.124.124,0,0,0-.037.006.118.118,0,0,0-.069.059.116.116,0,0,0-.01.076l-.506.17a4.654,4.654,0,0,0,.559-.631h0l.061-.082.007-.011,0-.006h0a.358.358,0,0,0,.049-.118c.013-.062,0-.47,0-.488l-.02-.015c-.016,0-.389.113-.436.136a.381.381,0,0,0-.1.071.323.323,0,0,0-.036.042l-.038.053a4.265,4.265,0,0,0-.473.815v-.61l.016,0a.123.123,0,0,0-.023-.243Z" transform="translate(-1126.497 -147.915)"/></g><g transform="translate(30.256 3.967)"><g transform="translate(0 8.036)"><path class="d" d="M1091.171,150.908l.008-.023s.127-.377.219-.619a1.334,1.334,0,0,1,.975-.889,1.043,1.043,0,0,1,.213-.025.224.224,0,0,1,.12.021.578.578,0,0,1,0,.333,1.334,1.334,0,0,1-.889.975c-.242.092-.615.218-.619.219Z" transform="translate(-1091.171 -149.353)"/><path class="d" d="M1096.28,149.707a.571.571,0,0,1,0-.334h0a.22.22,0,0,1,.119-.021,1.045,1.045,0,0,1,.213.025,1.335,1.335,0,0,1,.975.889c.092.242.217.615.219.619l.008.023-.023-.008s-.376-.127-.619-.219A1.334,1.334,0,0,1,1096.28,149.707Z" transform="translate(-1094.231 -149.353)"/></g><path class="d" d="M1095.011,131.33c-.032,0-.135-.09-.23-.236a1.331,1.331,0,0,1-.061-1.315c.106-.236.281-.589.283-.593l.008-.016.008.016s.177.356.283.593a1.331,1.331,0,0,1-.061,1.315C1095.147,131.24,1095.044,131.33,1095.011,131.33Z" transform="translate(-1093.222 -129.169)"/><path class="d" d="M1097.811,133.792l-.007.023s-.127.377-.219.619a1.334,1.334,0,0,1-.975.889,1.046,1.046,0,0,1-.213.025.219.219,0,0,1-.12-.021.577.577,0,0,1,0-.332,1.335,1.335,0,0,1,.889-.976c.242-.092.615-.217.619-.219Z" transform="translate(-1094.232 -131.952)"/><path class="d" d="M1092.7,134.994a.572.572,0,0,1,0,.333h0a.22.22,0,0,1-.12.021,1.041,1.041,0,0,1-.213-.025,1.334,1.334,0,0,1-.975-.889c-.092-.242-.217-.615-.219-.619l-.008-.023.023.008s.377.127.619.219A1.334,1.334,0,0,1,1092.7,134.994Z" transform="translate(-1091.171 -131.952)"/><path class="e" d="M1093.047,142.4a.123.123,0,0,0,.023-.243l-.016,0v-.61a4.265,4.265,0,0,0,.473.815l.038.053a.328.328,0,0,0,.037.042.384.384,0,0,0,.1.072c.046.022.42.131.436.135l.02-.014c0-.018.013-.426,0-.488a.363.363,0,0,0-.049-.118h0l0-.005-.007-.011-.061-.082h0a4.643,4.643,0,0,0-.559-.631l.506.17a.118.118,0,0,0,.08.136.124.124,0,0,0,.037.006.118.118,0,0,0,.055-.013.12.12,0,1,0-.167-.147l-.522-.176a4.718,4.718,0,0,0,.882-.2h0l.016-.005a.343.343,0,0,0,.09-.045.446.446,0,0,0,.088-.082h0c.023-.028.227-.328.235-.341l-.008-.023c-.015-.006-.357-.129-.393-.138a.436.436,0,0,0-.121-.014h0a.349.349,0,0,0-.1.016l-.019.006a4.674,4.674,0,0,0-.841.358l.334-.457a.118.118,0,0,0,.061.018l.019,0h0a.12.12,0,0,0-.037-.236.119.119,0,0,0-.057.21l-.325.444a4.737,4.737,0,0,0,.082-.889h0v-.053a.345.345,0,0,0-.007-.066.391.391,0,0,0-.043-.115.91.91,0,0,0-.076-.111l-.189-.243h0l-.012-.006h-.01l-.012.006h0l-.188.243a.9.9,0,0,0-.076.111.388.388,0,0,0-.043.115.321.321,0,0,0-.008.066c0,.016,0,.034,0,.053h0a4.776,4.776,0,0,0,.082.889l-.325-.444a.118.118,0,0,0,.021-.162.117.117,0,0,0-.078-.048.12.12,0,0,0-.037.236h0l.019,0a.118.118,0,0,0,.061-.018l.334.457a4.674,4.674,0,0,0-.841-.358l-.019-.006a.351.351,0,0,0-.1-.016h0a.435.435,0,0,0-.121.014c-.036.009-.379.133-.393.138l-.008.023c.009.013.212.313.235.341h0a.462.462,0,0,0,.089.082.341.341,0,0,0,.09.045l.016.005h0a4.723,4.723,0,0,0,.882.2l-.522.176a.119.119,0,0,0-.226.077.12.12,0,0,0,.114.083.124.124,0,0,0,.037-.006.119.119,0,0,0,.069-.06.116.116,0,0,0,.01-.076l.505-.17a4.67,4.67,0,0,0-.558.631h0l-.061.082a.055.055,0,0,0-.007.011l0,.005h0a.361.361,0,0,0-.049.118c-.014.062,0,.471,0,.488l.02.014c.016,0,.389-.113.436-.135a.385.385,0,0,0,.1-.072.306.306,0,0,0,.036-.042l.038-.053a4.271,4.271,0,0,0,.473-.815v.61l-.016,0a.123.123,0,0,0,.023.243Z" transform="translate(-1091.257 -135.274)"/><g transform="translate(0 10.202)"><path class="d" d="M1097.811,154.794l-.007.023s-.127.377-.219.619a1.335,1.335,0,0,1-.975.889,1.071,1.071,0,0,1-.213.024.219.219,0,0,1-.12-.021.577.577,0,0,1,0-.332,1.335,1.335,0,0,1,.889-.976c.242-.092.615-.217.619-.219Z" transform="translate(-1094.232 -154.794)"/><path class="d" d="M1092.7,156a.572.572,0,0,1,0,.333h0a.22.22,0,0,1-.12.021,1.065,1.065,0,0,1-.213-.024,1.335,1.335,0,0,1-.975-.889c-.092-.242-.217-.615-.219-.619l-.008-.023.023.008s.377.127.619.219A1.335,1.335,0,0,1,1092.7,156Z" transform="translate(-1091.171 -154.794)"/></g><g transform="translate(0 16.397)"><path class="d" d="M1095.011,173.458c.032,0,.135.09.23.236a1.331,1.331,0,0,1,.061,1.316c-.106.236-.281.589-.283.592l-.008.016L1095,175.6s-.176-.356-.283-.592a1.332,1.332,0,0,1,.061-1.316C1094.876,173.548,1094.979,173.458,1095.011,173.458Z" transform="translate(-1093.222 -172.223)"/><path class="d" d="M1091.171,171.91l.008-.023s.127-.377.219-.619a1.334,1.334,0,0,1,.975-.889,1.043,1.043,0,0,1,.213-.025.218.218,0,0,1,.12.021.576.576,0,0,1,0,.332,1.335,1.335,0,0,1-.889.976c-.242.092-.615.217-.619.219Z" transform="translate(-1091.171 -170.355)"/><path class="d" d="M1096.28,170.709a.569.569,0,0,1,0-.333h0a.215.215,0,0,1,.119-.021,1.045,1.045,0,0,1,.213.025,1.334,1.334,0,0,1,.975.889c.092.242.217.615.219.619l.008.023-.023-.007s-.376-.127-.619-.219A1.335,1.335,0,0,1,1096.28,170.709Z" transform="translate(-1094.231 -170.355)"/></g><path class="e" d="M1093.047,160.578a.123.123,0,0,0-.023.243l.016,0v.61a4.27,4.27,0,0,0-.473-.815l-.038-.053a.331.331,0,0,0-.036-.042.383.383,0,0,0-.1-.071c-.046-.023-.42-.131-.436-.136l-.02.015c0,.018-.014.426,0,.488a.357.357,0,0,0,.049.118h0l0,.006a.067.067,0,0,0,.007.011l.061.082h0a4.647,4.647,0,0,0,.558.631l-.505-.17a.116.116,0,0,0-.01-.076.119.119,0,0,0-.069-.059.124.124,0,0,0-.037-.006.118.118,0,0,0-.054.013.116.116,0,0,0-.059.07.119.119,0,0,0,.226.076l.522.176a4.692,4.692,0,0,0-.882.2h0l-.016.005a.339.339,0,0,0-.09.045.453.453,0,0,0-.089.083h0c-.023.027-.226.328-.235.34l.008.024c.014.005.357.129.393.138a.434.434,0,0,0,.121.014h0a.337.337,0,0,0,.1-.016l.019-.006a4.675,4.675,0,0,0,.841-.357l-.334.457a.114.114,0,0,0-.061-.018l-.019,0h0a.12.12,0,0,0-.052.215.123.123,0,0,0,.089.022.12.12,0,0,0,.1-.137.117.117,0,0,0-.043-.073l.325-.445a4.781,4.781,0,0,0-.082.889h0c0,.019,0,.037,0,.053a.328.328,0,0,0,.008.067.4.4,0,0,0,.043.115.893.893,0,0,0,.076.111l.188.243h0l.012.006h.01l.012-.006h0l.189-.243a.907.907,0,0,0,.076-.111.4.4,0,0,0,.043-.115.353.353,0,0,0,.007-.067v-.053h0a4.742,4.742,0,0,0-.082-.889l.325.445a.116.116,0,0,0-.043.073.119.119,0,0,0,.021.089.12.12,0,0,0,.194-.141.119.119,0,0,0-.078-.048h0l-.019,0a.114.114,0,0,0-.061.018l-.334-.457a4.675,4.675,0,0,0,.841.357l.019.006a.335.335,0,0,0,.1.016h0a.434.434,0,0,0,.121-.014c.036-.009.378-.133.393-.138l.008-.024c-.008-.013-.212-.313-.235-.34h0a.438.438,0,0,0-.088-.083.341.341,0,0,0-.09-.045l-.016-.005h0a4.688,4.688,0,0,0-.882-.2l.522-.176a.119.119,0,0,0,.226-.076.12.12,0,0,0-.114-.083.124.124,0,0,0-.037.006.119.119,0,0,0-.08.136l-.506.17a4.621,4.621,0,0,0,.559-.631h0l.061-.082.007-.011,0-.006h0a.36.36,0,0,0,.049-.118c.014-.062,0-.47,0-.488l-.02-.015c-.016,0-.389.113-.436.136a.382.382,0,0,0-.1.071.358.358,0,0,0-.037.042l-.038.053a4.263,4.263,0,0,0-.473.815v-.61l.016,0a.123.123,0,0,0-.023-.243Z" transform="translate(-1091.257 -147.915)"/></g><g transform="translate(15.383 3.967)"><g transform="translate(0 8.036)"><path class="d" d="M1053.812,150.908l.008-.023s.127-.377.219-.619a1.334,1.334,0,0,1,.975-.889,1.047,1.047,0,0,1,.213-.025.224.224,0,0,1,.12.021.57.57,0,0,1,0,.333,1.334,1.334,0,0,1-.889.975c-.242.092-.615.218-.619.219Z" transform="translate(-1053.812 -149.353)"/><path class="d" d="M1058.921,149.707a.576.576,0,0,1,0-.334h0a.223.223,0,0,1,.12-.021,1.041,1.041,0,0,1,.213.025,1.334,1.334,0,0,1,.975.889c.092.242.217.615.219.619l.008.023-.023-.008s-.377-.127-.619-.219A1.335,1.335,0,0,1,1058.921,149.707Z" transform="translate(-1056.872 -149.353)"/></g><path class="d" d="M1057.652,131.33c-.032,0-.135-.09-.23-.236a1.331,1.331,0,0,1-.061-1.315c.106-.236.281-.589.283-.593l.008-.016.008.016s.176.356.283.593a1.331,1.331,0,0,1-.061,1.315C1057.788,131.24,1057.685,131.33,1057.652,131.33Z" transform="translate(-1055.863 -129.169)"/><path class="d" d="M1060.453,133.792l-.008.023s-.127.377-.219.619a1.334,1.334,0,0,1-.975.889,1.043,1.043,0,0,1-.213.025.219.219,0,0,1-.12-.021.577.577,0,0,1,0-.332,1.335,1.335,0,0,1,.889-.976c.242-.092.615-.217.619-.219Z" transform="translate(-1056.873 -131.952)"/><path class="d" d="M1055.343,134.994a.578.578,0,0,1,0,.333h0a.216.216,0,0,1-.119.021,1.043,1.043,0,0,1-.213-.025,1.335,1.335,0,0,1-.975-.889c-.092-.242-.218-.615-.219-.619l-.008-.023.023.008s.377.127.619.219A1.333,1.333,0,0,1,1055.343,134.994Z" transform="translate(-1053.812 -131.952)"/><path class="e" d="M1055.689,142.4a.123.123,0,0,0,.023-.243l-.016,0v-.61a4.265,4.265,0,0,0,.473.815l.038.053a.306.306,0,0,0,.036.042.386.386,0,0,0,.1.072c.046.022.42.131.436.135l.02-.014c0-.018.013-.426,0-.488a.353.353,0,0,0-.049-.118h0l0-.005-.007-.011-.061-.082h0a4.694,4.694,0,0,0-.559-.631l.506.17a.116.116,0,0,0,.01.076.119.119,0,0,0,.069.06.125.125,0,0,0,.037.006.12.12,0,0,0,.114-.083.119.119,0,0,0-.226-.077l-.522-.176a4.718,4.718,0,0,0,.882-.2h0l.016-.005a.349.349,0,0,0,.09-.045.457.457,0,0,0,.088-.082h0c.023-.028.227-.328.235-.341l-.008-.023c-.014-.006-.357-.129-.393-.138a.435.435,0,0,0-.121-.014h0a.352.352,0,0,0-.1.016l-.019.006a4.68,4.68,0,0,0-.841.358l.334-.457a.117.117,0,0,0,.061.018l.019,0h0a.12.12,0,0,0-.037-.236.117.117,0,0,0-.078.048.12.12,0,0,0-.021.089.119.119,0,0,0,.043.073l-.325.444a4.776,4.776,0,0,0,.082-.889h0c0-.02,0-.037,0-.053a.329.329,0,0,0-.007-.066.392.392,0,0,0-.043-.115.91.91,0,0,0-.076-.111l-.188-.243h0l-.012-.006h-.01l-.012.006h0l-.189.243a.91.91,0,0,0-.076.111.4.4,0,0,0-.043.115.337.337,0,0,0-.007.066v.053h0a4.74,4.74,0,0,0,.083.889l-.325-.444a.118.118,0,0,0,.021-.162.118.118,0,0,0-.078-.048.12.12,0,0,0-.037.236h0l.019,0a.119.119,0,0,0,.061-.018l.334.457a4.682,4.682,0,0,0-.841-.358l-.019-.006a.349.349,0,0,0-.1-.016h0a.437.437,0,0,0-.121.014c-.036.009-.378.133-.393.138l-.007.023c.009.013.212.313.235.341h0a.444.444,0,0,0,.089.082.338.338,0,0,0,.09.045l.016.005h0a4.718,4.718,0,0,0,.882.2l-.522.176a.119.119,0,1,0-.167.147.118.118,0,0,0,.054.013.119.119,0,0,0,.117-.142l.506-.17a4.66,4.66,0,0,0-.559.631h0l-.061.082-.007.011,0,.005h0a.372.372,0,0,0-.049.118c-.014.062,0,.471,0,.488l.02.014c.016,0,.39-.113.436-.135a.384.384,0,0,0,.1-.072.328.328,0,0,0,.037-.042l.038-.053a4.27,4.27,0,0,0,.472-.815v.61l-.016,0a.123.123,0,0,0,.023.243Z" transform="translate(-1053.899 -135.274)"/><g transform="translate(0 10.202)"><path class="d" d="M1060.453,154.794l-.008.023s-.127.377-.219.619a1.335,1.335,0,0,1-.975.889,1.068,1.068,0,0,1-.213.024.22.22,0,0,1-.12-.021.577.577,0,0,1,0-.332,1.335,1.335,0,0,1,.889-.976c.242-.092.615-.217.619-.219Z" transform="translate(-1056.873 -154.794)"/><path class="d" d="M1055.343,156a.578.578,0,0,1,0,.333h0a.217.217,0,0,1-.119.021,1.068,1.068,0,0,1-.213-.024,1.336,1.336,0,0,1-.975-.889c-.092-.242-.218-.615-.219-.619l-.008-.023.023.008s.377.127.619.219A1.334,1.334,0,0,1,1055.343,156Z" transform="translate(-1053.812 -154.794)"/></g><g transform="translate(0 16.397)"><path class="d" d="M1057.652,173.458c.032,0,.135.09.23.236a1.331,1.331,0,0,1,.061,1.316c-.106.236-.281.589-.283.592l-.008.016-.008-.016s-.177-.356-.283-.592a1.332,1.332,0,0,1,.061-1.316C1057.517,173.548,1057.62,173.458,1057.652,173.458Z" transform="translate(-1055.863 -172.223)"/><path class="d" d="M1053.812,171.91l.008-.023s.127-.377.219-.619a1.334,1.334,0,0,1,.975-.889,1.047,1.047,0,0,1,.213-.025.218.218,0,0,1,.12.021.568.568,0,0,1,0,.332,1.335,1.335,0,0,1-.889.976c-.242.092-.615.217-.619.219Z" transform="translate(-1053.812 -170.355)"/><path class="d" d="M1058.921,170.709a.574.574,0,0,1,0-.333h0a.217.217,0,0,1,.12-.021,1.041,1.041,0,0,1,.213.025,1.334,1.334,0,0,1,.975.889c.092.242.217.615.219.619l.008.023-.023-.007s-.377-.127-.619-.219A1.335,1.335,0,0,1,1058.921,170.709Z" transform="translate(-1056.872 -170.355)"/></g><path class="e" d="M1055.689,160.578a.123.123,0,0,0-.023.243l.016,0v.61a4.268,4.268,0,0,0-.472-.815l-.038-.053a.358.358,0,0,0-.037-.042.382.382,0,0,0-.1-.071c-.046-.023-.42-.131-.435-.136l-.02.015c0,.018-.013.426,0,.488a.368.368,0,0,0,.049.118h0l0,.006.007.011.061.082h0a4.637,4.637,0,0,0,.559.631l-.506-.17a.119.119,0,0,0-.117-.142.12.12,0,1,0,.112.159l.522.176a4.688,4.688,0,0,0-.882.2h0l-.016.005a.337.337,0,0,0-.09.045.435.435,0,0,0-.089.083h0c-.023.027-.226.328-.235.34l.007.024c.015.005.357.129.393.138a.435.435,0,0,0,.121.014h0a.335.335,0,0,0,.1-.016l.019-.006a4.683,4.683,0,0,0,.841-.357l-.334.457a.115.115,0,0,0-.061-.018l-.019,0h0a.119.119,0,0,0-.051.215.123.123,0,0,0,.089.022.12.12,0,0,0,.1-.137.119.119,0,0,0-.043-.073l.325-.445a4.744,4.744,0,0,0-.083.889h0v.053a.345.345,0,0,0,.007.067.4.4,0,0,0,.043.115.907.907,0,0,0,.076.111l.189.243h0l.012.006h.01l.012-.006h0l.189-.243a.947.947,0,0,0,.075-.111.4.4,0,0,0,.043-.115.336.336,0,0,0,.007-.067c0-.016,0-.034,0-.053h0a4.781,4.781,0,0,0-.082-.889l.325.445a.117.117,0,0,0-.043.073.12.12,0,0,0,.1.137.123.123,0,0,0,.089-.022.12.12,0,0,0,.026-.167.119.119,0,0,0-.078-.048h0l-.019,0a.113.113,0,0,0-.061.018l-.334-.457a4.68,4.68,0,0,0,.841.357l.019.006a.338.338,0,0,0,.1.016h0a.434.434,0,0,0,.121-.014c.036-.009.379-.133.393-.138l.008-.024c-.009-.013-.212-.313-.235-.34h0a.448.448,0,0,0-.088-.083.347.347,0,0,0-.09-.045l-.016-.005h0a4.688,4.688,0,0,0-.882-.2l.522-.176a.119.119,0,0,0,.226-.076.116.116,0,0,0-.059-.07.118.118,0,0,0-.054-.013.126.126,0,0,0-.037.006.119.119,0,0,0-.069.059.116.116,0,0,0-.01.076l-.506.17a4.671,4.671,0,0,0,.559-.631h0l.061-.082.007-.011,0-.006h0a.361.361,0,0,0,.049-.118c.013-.062,0-.47,0-.488l-.02-.015c-.016,0-.389.113-.436.136a.384.384,0,0,0-.1.071.331.331,0,0,0-.036.042l-.038.053a4.263,4.263,0,0,0-.473.815v-.61l.016,0a.123.123,0,0,0-.023-.243Z" transform="translate(-1053.899 -147.915)"/></g><g transform="translate(1.599 3.967)"><g transform="translate(0 8.036)"><path class="d" d="M1019.189,150.908l.008-.023s.127-.377.219-.619a1.334,1.334,0,0,1,.975-.889,1.045,1.045,0,0,1,.213-.025.221.221,0,0,1,.12.021.57.57,0,0,1,0,.333,1.333,1.333,0,0,1-.889.975c-.242.092-.615.218-.619.219Z" transform="translate(-1019.189 -149.353)"/><path class="d" d="M1024.3,149.707a.579.579,0,0,1,0-.334h0a.22.22,0,0,1,.119-.021,1.042,1.042,0,0,1,.213.025,1.335,1.335,0,0,1,.976.889c.092.242.217.615.219.619l.008.023-.023-.008s-.377-.127-.619-.219A1.333,1.333,0,0,1,1024.3,149.707Z" transform="translate(-1022.249 -149.353)"/></g><path class="d" d="M1023.03,131.33c-.032,0-.135-.09-.23-.236a1.331,1.331,0,0,1-.061-1.315c.106-.236.281-.589.283-.593l.008-.016.008.016s.177.356.283.593a1.33,1.33,0,0,1-.061,1.315C1023.165,131.24,1023.062,131.33,1023.03,131.33Z" transform="translate(-1021.24 -129.169)"/><path class="d" d="M1025.829,133.792l-.008.023s-.127.377-.219.619a1.334,1.334,0,0,1-.975.889,1.04,1.04,0,0,1-.213.025.217.217,0,0,1-.119-.021.567.567,0,0,1,0-.332,1.334,1.334,0,0,1,.889-.976c.242-.092.615-.217.619-.219Z" transform="translate(-1022.249 -131.952)"/><path class="d" d="M1020.72,134.994a.576.576,0,0,1,0,.333h0a.219.219,0,0,1-.12.021,1.038,1.038,0,0,1-.213-.025,1.334,1.334,0,0,1-.975-.889c-.092-.242-.218-.615-.219-.619l-.008-.023.023.008s.377.127.619.219A1.333,1.333,0,0,1,1020.72,134.994Z" transform="translate(-1019.189 -131.952)"/><path class="e" d="M1021.065,142.4a.123.123,0,0,0,.023-.243l-.016,0v-.61a4.246,4.246,0,0,0,.473.815l.038.053a.345.345,0,0,0,.037.042.378.378,0,0,0,.1.072c.046.022.419.131.435.135l.02-.014c0-.018.013-.426,0-.488a.366.366,0,0,0-.049-.118h0l0-.005-.007-.011-.061-.082h0a4.671,4.671,0,0,0-.558-.631l.506.17a.119.119,0,0,0,.08.136.122.122,0,0,0,.037.006.117.117,0,0,0,.054-.013.12.12,0,1,0-.167-.147l-.522-.176a4.719,4.719,0,0,0,.882-.2h0l.016-.005a.341.341,0,0,0,.09-.045.453.453,0,0,0,.088-.082h0c.023-.028.227-.328.235-.341l-.008-.023c-.015-.006-.357-.129-.393-.138a.432.432,0,0,0-.12-.014h0a.348.348,0,0,0-.1.016l-.019.006a4.679,4.679,0,0,0-.841.358l.334-.457a.119.119,0,0,0,.061.018l.019,0h0a.12.12,0,0,0-.037-.236.118.118,0,0,0-.078.048.118.118,0,0,0,.021.162l-.325.444a4.7,4.7,0,0,0,.082-.889h0c0-.02,0-.037,0-.053a.351.351,0,0,0-.007-.066.393.393,0,0,0-.043-.115.914.914,0,0,0-.075-.111l-.189-.243h0l-.012-.006h-.01l-.012.006h0l-.189.243a.9.9,0,0,0-.075.111.391.391,0,0,0-.043.115.341.341,0,0,0-.007.066c0,.016,0,.034,0,.053h0a4.739,4.739,0,0,0,.082.889l-.325-.444a.118.118,0,0,0,.021-.162.12.12,0,0,0-.167-.026.12.12,0,0,0,.052.215h0l.019,0a.117.117,0,0,0,.061-.018l.334.457a4.67,4.67,0,0,0-.841-.358l-.019-.006a.346.346,0,0,0-.1-.016h0a.435.435,0,0,0-.121.014c-.036.009-.379.133-.393.138l-.008.023c.009.013.212.313.235.341h0a.458.458,0,0,0,.088.082.35.35,0,0,0,.09.045l.016.005h0a4.711,4.711,0,0,0,.882.2l-.522.176a.121.121,0,0,0-.15-.074.119.119,0,0,0-.076.151.12.12,0,0,0,.113.083.12.12,0,0,0,.107-.066.116.116,0,0,0,.01-.076l.506-.17a4.694,4.694,0,0,0-.559.631h0l-.06.082-.007.011,0,.005h0a.363.363,0,0,0-.049.118c-.013.062,0,.471,0,.488l.02.014c.016,0,.389-.113.436-.135a.386.386,0,0,0,.1-.072.338.338,0,0,0,.036-.042l.038-.053a4.244,4.244,0,0,0,.472-.815v.61l-.016,0a.123.123,0,0,0,.023.243Z" transform="translate(-1019.275 -135.274)"/><g transform="translate(0 10.202)"><path class="d" d="M1025.829,154.794l-.008.023s-.127.377-.219.619a1.335,1.335,0,0,1-.975.889,1.065,1.065,0,0,1-.213.024.217.217,0,0,1-.119-.021.567.567,0,0,1,0-.332,1.334,1.334,0,0,1,.889-.976c.242-.092.615-.217.619-.219Z" transform="translate(-1022.249 -154.794)"/><path class="d" d="M1020.72,156a.576.576,0,0,1,0,.333h0a.219.219,0,0,1-.12.021,1.062,1.062,0,0,1-.213-.024,1.335,1.335,0,0,1-.975-.889c-.092-.242-.218-.615-.219-.619l-.008-.023.023.008s.377.127.619.219A1.333,1.333,0,0,1,1020.72,156Z" transform="translate(-1019.189 -154.794)"/></g><g transform="translate(0 16.397)"><path class="d" d="M1023.03,173.458c.032,0,.135.09.23.236a1.331,1.331,0,0,1,.061,1.316c-.106.236-.281.589-.283.592l-.008.016-.008-.016s-.176-.356-.283-.592a1.331,1.331,0,0,1,.061-1.316C1022.894,173.548,1023,173.458,1023.03,173.458Z" transform="translate(-1021.24 -172.223)"/><path class="d" d="M1019.189,171.91l.008-.023s.127-.377.219-.619a1.334,1.334,0,0,1,.975-.889,1.045,1.045,0,0,1,.213-.025.215.215,0,0,1,.12.021.568.568,0,0,1,0,.332,1.334,1.334,0,0,1-.889.976c-.242.092-.615.217-.619.219Z" transform="translate(-1019.189 -170.355)"/><path class="d" d="M1024.3,170.709a.577.577,0,0,1,0-.333h0a.215.215,0,0,1,.119-.021,1.042,1.042,0,0,1,.213.025,1.335,1.335,0,0,1,.976.889c.092.242.217.615.219.619l.008.023-.023-.007s-.377-.127-.619-.219A1.334,1.334,0,0,1,1024.3,170.709Z" transform="translate(-1022.249 -170.355)"/></g><path class="e" d="M1021.065,160.578a.123.123,0,0,0-.023.243l.016,0v.61a4.242,4.242,0,0,0-.472-.815l-.038-.053a.369.369,0,0,0-.036-.042.384.384,0,0,0-.1-.071c-.046-.023-.42-.131-.436-.136l-.02.015c0,.018-.013.426,0,.488a.359.359,0,0,0,.049.118h0l0,.006.007.011.06.082h0a4.671,4.671,0,0,0,.559.631l-.506-.17a.116.116,0,0,0-.01-.076.119.119,0,0,0-.07-.059.12.12,0,0,0-.037-.006.118.118,0,0,0-.054.013.115.115,0,0,0-.059.07.119.119,0,0,0,.226.076l.522.176a4.68,4.68,0,0,0-.882.2h0l-.016.005a.349.349,0,0,0-.09.045.449.449,0,0,0-.088.083h0c-.023.027-.227.328-.235.34l.008.024c.014.005.357.129.393.138a.433.433,0,0,0,.121.014h0a.333.333,0,0,0,.1-.016l.019-.006a4.671,4.671,0,0,0,.841-.357l-.334.457a.113.113,0,0,0-.061-.018l-.019,0h0a.119.119,0,0,0-.078.048.12.12,0,0,0,.026.167.122.122,0,0,0,.089.022.12.12,0,0,0,.1-.137.118.118,0,0,0-.043-.073l.325-.445a4.743,4.743,0,0,0-.082.889h0c0,.019,0,.037,0,.053a.348.348,0,0,0,.007.067.411.411,0,0,0,.043.115.9.9,0,0,0,.075.111l.189.243h0l.012.006h.01l.012-.006h0l.189-.243a.858.858,0,0,0,.075-.111.4.4,0,0,0,.043-.115.358.358,0,0,0,.007-.067c0-.016,0-.034,0-.053h0a4.7,4.7,0,0,0-.082-.889l.325.445a.118.118,0,0,0-.043.073.12.12,0,0,0,.1.137.123.123,0,0,0,.089-.022.12.12,0,0,0-.052-.215h0l-.019,0a.115.115,0,0,0-.061.018l-.334-.457a4.68,4.68,0,0,0,.841.357l.019.006a.334.334,0,0,0,.1.016h0a.431.431,0,0,0,.12-.014c.036-.009.379-.133.393-.138l.008-.024c-.009-.013-.212-.313-.235-.34h0a.444.444,0,0,0-.088-.083.34.34,0,0,0-.09-.045l-.016-.005h0a4.688,4.688,0,0,0-.882-.2l.522-.176a.12.12,0,0,0,.227-.076.12.12,0,0,0-.114-.083.122.122,0,0,0-.037.006.118.118,0,0,0-.08.136l-.506.17a4.648,4.648,0,0,0,.558-.631h0l.061-.082.007-.011,0-.006h0a.362.362,0,0,0,.049-.118c.014-.062,0-.47,0-.488l-.02-.015c-.016,0-.389.113-.435.136a.38.38,0,0,0-.138.113l-.038.053a4.244,4.244,0,0,0-.473.815v-.61l.016,0a.123.123,0,0,0-.023-.243Z" transform="translate(-1019.275 -147.915)"/></g></g><path class="a" d="M1130.093,111.459a1.121,1.121,0,0,1-.644-.009,2.6,2.6,0,0,1-1.9-1.733c-.18-.473-.426-1.2-.428-1.209l-.011-.034.033.011c.008,0,.736.248,1.209.428a2.6,2.6,0,0,1,1.733,1.9A1.12,1.12,0,0,1,1130.093,111.459Z" transform="translate(-1082.545 -108.474)"/></g></g></svg>