<svg xmlns="http://www.w3.org/2000/svg" viewBox="0 0 128.27 85.28"><defs><style>.cls-1{fill:#4d3f98;}</style></defs><g id="Layer_2" data-name="Layer 2"><g id="Layer_1-2" data-name="Layer 1"><polygon class="cls-1" points="0 55.19 0 82.8 40.3 55.19 0 55.19"/><polygon class="cls-1" points="0 5.77 0 30.09 35.5 30.09 0 5.77"/><polygon class="cls-1" points="128.27 30.09 128.27 2.48 87.97 30.09 128.27 30.09"/><polygon class="cls-1" points="71.7 0 56.57 0 56.57 34.09 0 34.09 0 51.19 56.57 51.19 56.57 85.28 52.57 85.28 52.57 55.19 52.03 55.19 8.1 85.28 0 85.28 0 85.28 128.27 85.28 128.27 85.28 124.98 85.28 81.05 55.19 75.7 55.19 75.7 85.28 71.7 85.28 71.7 51.19 128.27 51.19 128.27 34.09 71.7 34.09 71.7 0"/><polygon class="cls-1" points="128.27 79.51 128.27 55.19 92.77 55.19 128.27 79.51"/><polygon class="cls-1" points="76.25 30.09 120.17 0 75.7 0 75.7 30.09 76.25 30.09"/><polygon class="cls-1" points="52.57 30.09 52.57 0 3.3 0 47.22 30.09 52.57 30.09"/></g></g></svg>