<svg id="Layer_1" data-name="Layer 1" xmlns="http://www.w3.org/2000/svg" viewBox="0 0 226 150"><defs><style>.cls-1{fill:#4d3f98;}</style></defs><path class="cls-1" d="M126.86,73a13.41,13.41,0,0,0-11.37,6.31l0,0,0,0a20.73,20.73,0,0,1-17.16,9.08,20.65,20.65,0,0,1-13.71-5.21,29.55,29.55,0,0,0,55.65,3.25A13.39,13.39,0,0,0,126.86,73Z"/><path class="cls-1" d="M0,0V150H226V0ZM169.72,15.47l9.84,15.13L174.29,34l-9.85-15.13Zm-6.9,4.47,20.74,31.87-5.27,3.42L157.55,23.35Zm8.58,72.42,5.27,3.42-9.84,15.13-5.27-3.42Zm-9.84-47.79,5.27-3.42,9.84,15.13L171.4,59.7Zm16.73,52.26,5.27,3.42-9.84,15.13L168.45,112ZM155.93,24.4l9.84,15.13L160.5,43l-9.84-15.13Zm-87.48-1L47.71,55.23l-5.27-3.42L63.18,19.94ZM57.55,112l-5.27,3.42-9.84-15.13,5.27-3.42ZM56.28,15.47l5.28,3.42L40.82,50.76l-5.27-3.41Zm0,121.12L35.55,104.72l5.27-3.42,20.74,31.88Zm6.9-4.46L53.33,117l5.28-3.42,9.84,15.13Zm6.89-4.47L49.33,95.78l5.27-3.42,20.74,31.88ZM54.6,59.7l-5.27-3.42L70.07,24.4l5.27,3.42ZM113,112.42A37.42,37.42,0,1,1,150.48,75,37.45,37.45,0,0,1,113,112.42Zm37.66,11.82,9.84-15.13,5.27,3.42-9.84,15.13Zm6.89,4.47,9.85-15.13,5.27,3.42-9.85,15.13Zm12.17,7.88-5.28-3.41,9.85-15.13,5.27,3.41Zm10.89-16.74-5.27-3.42,9.84-15.13,5.27,3.42Zm4.57-69.09-9.84-15.13,5.27-3.41,9.84,15.13Z"/><path class="cls-1" d="M113,45.5A29.57,29.57,0,0,0,85.17,65.17,13.39,13.39,0,0,0,110,74.29l.07,0a20.66,20.66,0,0,1,32.42-1.52A29.54,29.54,0,0,0,113,45.5Z"/></svg>